<svg xmlns="http://www.w3.org/2000/svg" width="30.977" height="22.015" viewBox="0 0 30.977 22.015">
  <g id="그룹_4408" data-name="그룹 4408" transform="translate(1050.527 -4760.383)">
    <rect id="사각형_6191" data-name="사각형 6191" width="22.387" height="6.686" rx="3.343" transform="translate(-1050.527 4760.383)" fill="#eee"/>
    <rect id="사각형_6192" data-name="사각형 6192" width="10.131" height="1.266" rx="0.633" transform="translate(-1048.908 4763.093)" fill="#777"/>
    <rect id="사각형_6193" data-name="사각형 6193" width="22.387" height="6.686" rx="3.343" transform="translate(-1050.527 4768.047)" fill="#eee"/>
    <rect id="사각형_6194" data-name="사각형 6194" width="10.131" height="1.266" rx="0.633" transform="translate(-1048.908 4770.757)" fill="#777"/>
    <rect id="사각형_6195" data-name="사각형 6195" width="22.387" height="6.686" rx="3.343" transform="translate(-1050.527 4775.711)" fill="#eee"/>
    <rect id="사각형_6196" data-name="사각형 6196" width="10.131" height="1.266" rx="0.633" transform="translate(-1048.908 4778.421)" fill="#777"/>
    <circle id="타원_239" data-name="타원 239" cx="5.916" cy="5.916" r="5.916" transform="translate(-1036.314 4761.341)" fill="#777"/>
    <circle id="타원_240" data-name="타원 240" cx="4.69" cy="4.69" r="4.69" transform="translate(-1035.088 4762.568)" fill="#fff"/>
    <rect id="사각형_6197" data-name="사각형 6197" width="1.943" height="1.547" transform="translate(-1027.306 4771.723) rotate(-45)" fill="#777"/>
    <path id="사각형_6198" data-name="사각형 6198" d="M0,0H2.341a0,0,0,0,1,0,0V6.109A1.171,1.171,0,0,1,1.171,7.279h0A1.171,1.171,0,0,1,0,6.109V0A0,0,0,0,1,0,0Z" transform="translate(-1026.353 4772.958) rotate(-45.004)" fill="#eee"/>
  </g>
</svg>
