<svg xmlns="http://www.w3.org/2000/svg" width="20.801" height="22.015" viewBox="0 0 20.801 22.015">
  <g id="그룹_4870" data-name="그룹 4870" transform="translate(-285 -870.981)">
    <rect id="사각형_6202" data-name="사각형 6202" width="4.295" height="11.574" transform="matrix(0.707, 0.707, -0.707, 0.707, 293.837, 872.932)" fill="#ff7e7e"/>
    <rect id="사각형_6203" data-name="사각형 6203" width="4.295" height="11.574" transform="matrix(0.707, 0.707, -0.707, 0.707, 296.874, 875.969)" fill="#fff"/>
    <rect id="사각형_6204" data-name="사각형 6204" width="4.295" height="11.574" transform="matrix(0.707, 0.707, -0.707, 0.707, 299.911, 879.006)" fill="#ff7e7e"/>
    <path id="패스_3175" data-name="패스 3175" d="M92.3,465.7l-6.933.174a2.294,2.294,0,0,1-2.351-2.351l.173-6.934Z" transform="translate(202.466 424.53)" fill="#ffe4e4"/>
    <path id="패스_3176" data-name="패스 3176" d="M83.056,472.921l-.043,1.725A2.3,2.3,0,0,0,85.364,477l1.725-.043Z" transform="translate(202.466 413.404)" fill="#ff7e7e"/>
    <path id="사각형_6205" data-name="사각형 6205" d="M2.759,0h7.366a2.759,2.759,0,0,1,2.759,2.759v0a0,0,0,0,1,0,0H0a0,0,0,0,1,0,0v0A2.759,2.759,0,0,1,2.759,0Z" transform="translate(295.788 870.981) rotate(45)" fill="#ffe4e4"/>
    <path id="패스_3177" data-name="패스 3177" d="M101.834,491.8H81.99a.478.478,0,1,1,0-.957h19.844a.478.478,0,1,1,0,.957Z" transform="translate(203.488 401.199)" fill="#ff7e7e"/>
  </g>
</svg>
