<svg xmlns="http://www.w3.org/2000/svg" width="30.977" height="22.015" viewBox="0 0 30.977 22.015">
  <g id="그룹_4871" data-name="그룹 4871" transform="translate(-118 -1414.981)">
    <rect id="사각형_6191" data-name="사각형 6191" width="22.387" height="6.686" rx="3.343" transform="translate(118 1414.981)" fill="#ffe4e4"/>
    <rect id="사각형_6192" data-name="사각형 6192" width="10.131" height="1.266" rx="0.633" transform="translate(119.619 1417.69)" fill="#ff7e7e"/>
    <rect id="사각형_6193" data-name="사각형 6193" width="22.387" height="6.686" rx="3.343" transform="translate(118 1422.645)" fill="#ffe4e4"/>
    <rect id="사각형_6194" data-name="사각형 6194" width="10.131" height="1.266" rx="0.633" transform="translate(119.619 1425.355)" fill="#ff7e7e"/>
    <rect id="사각형_6195" data-name="사각형 6195" width="22.387" height="6.686" rx="3.343" transform="translate(118 1430.309)" fill="#ffe4e4"/>
    <rect id="사각형_6196" data-name="사각형 6196" width="10.131" height="1.266" rx="0.633" transform="translate(119.619 1433.019)" fill="#ff7e7e"/>
    <circle id="타원_239" data-name="타원 239" cx="5.916" cy="5.916" r="5.916" transform="translate(132.213 1415.939)" fill="#ff7e7e"/>
    <circle id="타원_240" data-name="타원 240" cx="4.69" cy="4.69" r="4.69" transform="translate(133.44 1417.166)" fill="#fff"/>
    <rect id="사각형_6197" data-name="사각형 6197" width="1.943" height="1.547" transform="translate(141.221 1426.32) rotate(-45)" fill="#ff7e7e"/>
    <path id="사각형_6198" data-name="사각형 6198" d="M0,0H2.341a0,0,0,0,1,0,0V6.109A1.171,1.171,0,0,1,1.171,7.279h0A1.171,1.171,0,0,1,0,6.109V0A0,0,0,0,1,0,0Z" transform="translate(142.174 1427.556) rotate(-45.004)" fill="#ffe4e4"/>
  </g>
</svg>
