<svg xmlns="http://www.w3.org/2000/svg" width="24.358" height="22.015" viewBox="0 0 24.358 22.015">
  <g id="그룹_4869" data-name="그룹 4869" transform="translate(-40 -870.981)">
    <path id="패스_3164" data-name="패스 3164" d="M102.47,265.647H88.154a1.459,1.459,0,0,1-1.459-1.459V252.309l8.617-6.585,8.617,6.585v11.879A1.459,1.459,0,0,1,102.47,265.647Z" transform="translate(-43.133 627.349)" fill="#eee"/>
    <path id="패스_3165" data-name="패스 3165" d="M98.469,249.088a1.226,1.226,0,0,1-.7-.218L87.52,241.78l-10.252,7.09a1.229,1.229,0,0,1-1.4-2.021l10.951-7.573a1.228,1.228,0,0,1,1.4,0l10.951,7.573a1.229,1.229,0,0,1-.7,2.239Z" transform="translate(-35.341 631.923)" fill="#777"/>
    <path id="사각형_6188" data-name="사각형 6188" d="M2.865,0h0A2.865,2.865,0,0,1,5.73,2.865V8.306a0,0,0,0,1,0,0H0a0,0,0,0,1,0,0V2.865A2.865,2.865,0,0,1,2.865,0Z" transform="translate(49.335 884.69)" fill="#777"/>
  </g>
</svg>
